inDegrees=no
num_controls=7
num_derivatives=13
num_iterations=120
num_multipliers=7
num_parameters=0
num_slacks=7
num_states=26
objective=0.500299
objective_accelerations=0.010172
objective_balance=0.003837
objective_effort=0.010427
objective_height=0.388717
objective_ligament=0.087146
solver_duration=1701.184594
status=Solve_Succeeded
success=true
DataType=double
version=3
OpenSimVersion=4.5
endheader
time	/jointset/ground_pelvis/pelvis_tilt/value	/jointset/ground_pelvis/pelvis_tx/value	/jointset/ground_pelvis/pelvis_ty/value	/jointset/hip_l/hip_flexion_l/value	/jointset/hip_l/hip_adduction_l/value	/jointset/hip_l/hip_rotation_l/value	/jointset/back/lumbar_extension/value	/jointset/patellofemoral_l/patellar_flexion_l/value	/jointset/knee_l/knee_flexion_l/value	/jointset/knee_l/knee_adduction_l/value	/jointset/knee_l/knee_rotation_l/value	/jointset/ankle_l/ankle_angle_l/value	/jointset/subtalar_l/subtalar_angle_l/value	/jointset/ground_pelvis/pelvis_tilt/speed	/jointset/ground_pelvis/pelvis_tx/speed	/jointset/ground_pelvis/pelvis_ty/speed	/jointset/hip_l/hip_flexion_l/speed	/jointset/hip_l/hip_adduction_l/speed	/jointset/hip_l/hip_rotation_l/speed	/jointset/back/lumbar_extension/speed	/jointset/patellofemoral_l/patellar_flexion_l/speed	/jointset/knee_l/knee_flexion_l/speed	/jointset/knee_l/knee_adduction_l/speed	/jointset/knee_l/knee_rotation_l/speed	/jointset/ankle_l/ankle_angle_l/speed	/jointset/subtalar_l/subtalar_angle_l/speed	/forceset/tau_hip_flexion_l	/forceset/tau_hip_adduction_l	/forceset/tau_hip_rotation_l	/forceset/tau_knee_flexion_l	/forceset/tau_ankle_angle_l	/forceset/tau_subtalar_angle_l	/forceset/tau_lumbar_extension	lambda_cid13_p0	lambda_cid13_p1	lambda_cid13_p2	lambda_cid13_p3	lambda_cid13_p4	lambda_cid13_p5	lambda_cid14_p0	/jointset/ground_pelvis/pelvis_tilt/accel	/jointset/ground_pelvis/pelvis_tx/accel	/jointset/ground_pelvis/pelvis_ty/accel	/jointset/hip_l/hip_flexion_l/accel	/jointset/hip_l/hip_adduction_l/accel	/jointset/hip_l/hip_rotation_l/accel	/jointset/back/lumbar_extension/accel	/jointset/patellofemoral_l/patellar_flexion_l/accel	/jointset/knee_l/knee_flexion_l/accel	/jointset/knee_l/knee_adduction_l/accel	/jointset/knee_l/knee_rotation_l/accel	/jointset/ankle_l/ankle_angle_l/accel	/jointset/subtalar_l/subtalar_angle_l/accel	gamma_cid13_p0	gamma_cid13_p1	gamma_cid13_p2	gamma_cid13_p3	gamma_cid13_p4	gamma_cid13_p5	gamma_cid14_p0
1	0.1121506424142515	-0.006511314815000463	0.9236928148822003	0.2758380876018955	-0.2353481854036513	-0.3129591380786859	-0.8934642981846357	0.3096905752707154	0.30969057527059	-0.02732351090604609	-0.1745120623850057	-0.01744210779778357	0.05707937089120913	0.1240154577310871	0.03505112317612367	0.02993713532827008	-0.2719370834218567	0.03234238776356906	-0.0535681144478975	0.001039292887200097	-0.1549891705154585	-0.1549891705154223	0.01786346803705231	-0.0001978694350595475	-1.06201597605802e-05	0.03436388999656056	-0.1835428973303886	0.07357465294452102	-0.008772238213562491	-0.07875895718178129	0.08306823643110968	-0.0008045562946884315	0.3046179048751382	-21.14959273512383	0.9251264374872696	2.970482604978494	1.538463020338048	-724.4628898376947	-48.53973683870331	-23.47238372288104	-0.2242115465029762	0.2663930225162399	0.07566482991729895	-0.4956800734659345	0.08980047365799169	-0.2089627110129216	1.992465209608895	-0.7181909167843658	-0.71819091678444	-0.05797220812917561	0.002911152827559932	-0.002740546821436002	0.09547170227269797	3.805358338442619e-10	-5.063156431282592e-09	-4.591989312413866e-09	2.232518017997325e-09	-1.401604536038784e-08	1.367324066364398e-09	5.635710357573038e-10
1.01	0.1133793713671516	-0.006147514116785811	0.9239958923202577	0.2730945004327719	-0.2350202744903587	-0.3135051219344329	-0.8933541662231326	0.3081052168750847	0.3081052168750814	-0.02714765657494248	-0.1745138485118001	-0.01744222113547239	0.05742782888871743	0.1217240248070069	0.03770774416689918	0.03067494181502642	-0.2767629860357269	0.0332426545910962	-0.05562768591236381	0.02098598317733385	-0.1620723227559903	-0.1620723227559713	0.01731507281892098	-0.0001595543374823913	-1.022351511273583e-05	0.03533142985294997	-0.1826297142588339	0.07345358462859053	-0.008769172537932838	-0.07843353828301437	0.0827807464151912	-0.0009493523672723329	0.304001409537056	-21.2340654042302	0.98956097035433	2.97533432762639	1.592781011169073	-724.216071385967	-48.54105115165122	-23.45912056522349	-0.2325547029959675	0.2651062718392765	0.07232414030354981	-0.473440280130948	0.09057056574700631	-0.2043085127868041	1.995603503418025	-0.7018496084506626	-0.7018496084530758	-0.05212354085288321	0.004261400973215224	0.001703332928837414	0.09795456037429318	3.081236388442863e-10	-5.240018671065483e-09	-4.655088958022539e-09	2.396707752626224e-09	-1.423531270107649e-08	1.515683138952083e-09	5.44740333844325e-10
1.02	0.114584996883277	-0.00575718528176686	0.9243062449396323	0.2703031752525766	-0.2346832747530946	-0.314071672334527	-0.8930446008457873	0.306449332510905	0.3064493325110168	-0.02697705626847456	-0.174515257545077	-0.01744227579417004	0.0577860741714005	0.1193947703775032	0.04035675053698359	0.03139217159171447	-0.2814846856409308	0.03416015255645864	-0.05768142332175762	0.04092597605555726	-0.1690943642270452	-0.1690943642270428	0.01681266311289555	-0.0001224507298875794	1.115642371680688e-06	0.03632134703143126	-0.1817165311870797	0.07333251631275989	-0.008766106862390103	-0.07810811938416944	0.08249325639931973	-0.001094148439733467	0.3033849141990742	-21.32403453885908	1.054185142674511	2.981038493711112	1.649650994892023	-724.0538888554053	-48.55621389134295	-23.44495306411973	-0.2317758475876073	0.2648700983779497	0.07154948790363364	-0.4748394717326674	0.09324670122506409	-0.2077958999984203	1.991125727226861	-0.7059687628889363	-0.705968762888906	-0.04877510570796417	0.00266885483108025	-0.0005520442541900048	0.09994716669105976	1.662993657092103e-10	-5.57171448165518e-09	-4.493667718888828e-09	2.56064586594556e-09	-1.470518333403633e-08	1.31805531161767e-09	4.860248137063739e-10
1.03	0.1157672001065525	-0.005340393056296162	0.9246236709544534	0.2674650583583649	-0.2343370768960553	-0.3146587064946806	-0.8925357249024963	0.3047235461037182	0.3047235461037672	-0.02681138049786568	-0.17451631081048	-0.01744215081328365	0.05815426914500144	0.1170450969336023	0.04300154695920709	0.03208991826174705	-0.2861300824654769	0.03507615067966563	-0.05972176387217562	0.06084302407862269	-0.1760509822628487	-0.1760509822628472	0.01631758287406643	-8.906813125377422e-05	2.704713169990929e-05	0.03731547595484742	-0.1806906720781674	0.07316862520578891	-0.008759691604526838	-0.07780719109075677	0.08225781895126714	-0.001263037059226765	0.3026317144258445	-21.39088257144757	1.125923442298113	2.984809956862384	1.686371510095938	-723.7766994648598	-48.55658760830421	-23.42984493462853	-0.23667899621845	0.2642628200378035	0.06841725151911188	-0.4580977475292222	0.09028802991068681	-0.2016062645443898	1.991066061331219	-0.6887181670279693	-0.6887181670280511	-0.05061234609194967	0.003542651515369841	0.004640666567754971	0.09882144885262908	2.376680606255134e-11	-5.904990226640865e-09	-4.329955450318969e-09	2.724581411700514e-09	-1.517761114344792e-08	1.116897005712621e-09	4.269023056273512e-10
1.04	0.1169258834146971	-0.004897157185424278	0.9249479804349682	0.2645807459039955	-0.2339818167253686	-0.3152660346867074	-0.8918278641346766	0.3029285515475668	0.302928551547541	-0.02665080310228807	-0.1745170563120777	-0.01744167153332457	0.05853234054657417	0.1146907873526036	0.04564547961722052	0.03276886473041801	-0.2907237976785704	0.03597261528451082	-0.06174022970182305	0.08072294096107425	-0.1829359940227286	-0.1829359940227287	0.01579298811039466	-6.089796718625543e-05	7.19754626838101e-05	0.03829663262569637	-0.1796648129690022	0.07300473409893717	-0.008753276346792335	-0.07750626279723964	0.0820223815032757	-0.001431925678571117	0.301878514652742	-21.4631351244689	1.197854205446406	2.989411798300315	1.725387295592139	-723.5827794716758	-48.57067516175564	-23.41376632226632	-0.2327030750070785	0.2646973455358198	0.06778944763129358	-0.4645031494420954	0.08933999755272101	-0.2034209558443055	1.983699499104118	-0.6916475077042193	-0.6916475077043023	-0.05467801067646538	0.001626367917811571	0.003247324076809197	0.09735271617758028	5.60773229916873e-11	-6.066943101948025e-09	-4.47361152595436e-09	2.780632622656011e-09	-1.546327187317628e-08	1.208602724628664e-09	4.433364063258304e-10
